<?xml version="1.0" encoding="iso-8859-1"?>
<!-- Generator: Adobe Illustrator 19.0.0, SVG Export Plug-In . SVG Version: 6.00 Build 0)  -->
<svg version="1.1" id="Capa_1" xmlns="http://www.w3.org/2000/svg" xmlns:xlink="http://www.w3.org/1999/xlink" x="0px" y="0px"
	 viewBox="0 0 512 512" style="enable-background:new 0 0 512 512;" xml:space="preserve">
<path style="fill:#FEA832;" d="M417.997,180H316c-5.259,0-10.151-2.769-12.861-7.28l-51.006-84.902
	c-2.886-4.79-2.856-10.796,0.073-15.571C267.425,47.466,283.901,30,316,30c23.95,0,46.274,12.729,58.242,33.223l56.602,94.043
	C436.846,167.197,429.697,180,417.997,180z"/>
<path style="fill:#555A66;" d="M476.3,240c-8.399,51-27.9,101.6-56.7,145.399c-2.999,4.2-7.5,6.601-12.599,6.601H105
	c-5.099,0-9.6-2.401-12.599-6.601C63.6,341.6,44.099,291,35.7,240l22.5-20.7h387.201L476.3,240z"/>
<path style="fill:#707789;" d="M437,362H75c-24.901,0-45,20.099-45,45v30c0,8.399,6.599,15,15,15h422c8.401,0,15-6.601,15-15v-30
	C482,382.099,461.901,362,437,362z"/>
<path style="fill:#3C3A41;" d="M476.3,240c-8.399,51-27.9,101.6-56.7,145.399c-2.999,4.2-7.5,6.601-12.599,6.601H256V219.3h189.401
	L476.3,240z"/>
<path style="fill:#555A66;" d="M482,407v30c0,8.399-6.599,15-15,15H256v-90h181C461.901,362,482,382.099,482,407z"/>
<path style="fill:#2B292C;" d="M377,512c-24.814,0-45-20.186-45-45s20.186-45,45-45s45,20.186,45,45S401.814,512,377,512z"/>
<path style="fill:#BEC3D2;" d="M377,482c-8.276,0-15-6.724-15-15s6.724-15,15-15s15,6.724,15,15S385.276,482,377,482z"/>
<path style="fill:#3C3A41;" d="M135,512c-24.814,0-45-20.186-45-45s20.186-45,45-45s45,20.186,45,45S159.814,512,135,512z"/>
<path style="fill:#CDD2E1;" d="M135,482c-8.276,0-15-6.724-15-15s6.724-15,15-15s15,6.724,15,15S143.276,482,135,482z"/>
<path style="fill:#FEDB41;" d="M328.9,157.2L256,36.301l-1.8-3.001C242.199,12.599,220,0,196,0s-46.199,12.599-58.2,32.999
	L63.1,157.2c-6,10.199,1.2,22.8,12.9,22.8h240c5.4,0,10.499-3.001,13.2-7.5C331.601,167.699,331.601,161.999,328.9,157.2z"/>
<path style="fill:#707789;" d="M482,167.699v9.001c0,18.898-1.8,44.7-5.7,63.3H35.7c-3.9-18.6-5.7-44.401-5.7-63.3v-9.001H482z"/>
<path style="fill:#555A66;" d="M482,167.699v9.001c0,18.898-1.8,44.7-5.7,63.3H256v-72.301H482z"/>
<path style="fill:#FCBF29;" d="M316,180h-60V36.301L328.9,157.2c2.701,4.799,2.701,10.499,0.3,15.3
	C326.499,176.999,321.4,180,316,180z"/>
<path style="fill:#555A66;" d="M512,165c0,8.399-6.599,15-15,15H15c-8.401,0-15-6.601-15-15c0-8.401,6.599-15,15-15h482
	C505.401,150,512,156.599,512,165z"/>
<path style="fill:#3C3A41;" d="M512,165c0,8.399-6.599,15-15,15H256v-30h241C505.401,150,512,156.599,512,165z"/>
<g>
</g>
<g>
</g>
<g>
</g>
<g>
</g>
<g>
</g>
<g>
</g>
<g>
</g>
<g>
</g>
<g>
</g>
<g>
</g>
<g>
</g>
<g>
</g>
<g>
</g>
<g>
</g>
<g>
</g>
</svg>
